<?xml version="1.0" standalone="no"?>
<!DOCTYPE svg PUBLIC "-//W3C//DTD SVG 20010904//EN"
 "http://www.w3.org/TR/2001/REC-SVG-20010904/DTD/svg10.dtd">
<svg version="1.0" xmlns="http://www.w3.org/2000/svg"
 width="400px" height="400px" viewBox="0 0 500.000000 500.000000"
 preserveAspectRatio="xMidYMid meet">

<g transform="translate(0.000000,500.000000) scale(0.100000,-0.100000)"
fill="#FFFFFF" stroke="none">
<path d="M2090 3785 c-20 -53 -99 -164 -162 -227 -62 -63 -102 -92 -216 -156
-189 -107 -387 -296 -535 -508 -104 -151 -205 -384 -254 -592 -26 -111 -28
-129 -27 -347 0 -213 2 -239 26 -346 35 -151 77 -272 133 -384 71 -141 57
-133 169 -94 53 19 96 37 96 41 0 4 -17 36 -38 70 -119 195 -202 472 -202 674
0 316 197 607 500 741 64 29 69 33 35 27 -71 -11 -203 -60 -272 -102 -38 -22
-98 -68 -135 -102 -38 -34 -68 -57 -68 -51 0 25 57 165 107 264 112 219 282
416 478 553 175 122 423 215 650 245 115 15 394 6 495 -16 166 -36 359 -113
495 -198 168 -104 340 -271 453 -442 75 -113 90 -128 46 -48 -226 409 -590
685 -1040 789 -98 22 -150 28 -292 32 -187 5 -276 -4 -431 -44 -52 -13 -96
-22 -98 -21 -1 2 13 32 32 68 38 70 80 187 71 196 -3 3 -10 -7 -16 -22z"/>
<path d="M2666 3012 c-29 -46 -46 -103 -46 -155 0 -30 7 -46 30 -69 17 -16 30
-34 30 -38 0 -5 7 -7 15 -4 10 4 15 0 15 -15 0 -25 15 -28 25 -3 5 13 12 7 32
-32 33 -64 28 -116 -21 -205 -121 -225 -138 -280 -126 -415 l5 -58 -62 -71
c-35 -40 -63 -75 -63 -79 0 -5 -8 -8 -19 -8 -15 0 -20 10 -25 53 -4 33 -20 73
-42 109 -69 113 -78 171 -39 248 29 57 30 71 10 109 -12 25 -22 29 -72 36 -61
7 -115 9 -147 3 -14 -2 -22 6 -31 32 l-13 35 -7 -53 c-7 -51 -8 -52 -27 -35
-17 15 -20 15 -28 3 -5 -8 -7 -31 -5 -50 13 -106 15 -279 4 -304 -8 -16 -44
-46 -95 -77 -207 -127 -277 -279 -240 -523 8 -59 13 -113 10 -118 -12 -19 -90
-48 -131 -48 -33 0 -50 7 -73 28 -29 25 -32 34 -40 121 -15 158 -68 228 -168
218 -52 -6 -82 -30 -82 -69 0 -36 28 -48 81 -34 56 15 69 -2 81 -105 20 -177
47 -220 149 -241 l58 -12 -112 -32 c-191 -56 -536 -188 -524 -201 3 -2 49 7
103 21 254 63 595 120 889 148 188 18 881 18 1070 0 297 -28 764 -109 954
-166 30 -9 56 -14 58 -12 6 5 -198 93 -307 132 -52 19 -101 37 -108 39 -11 4
-10 9 2 27 9 12 16 30 16 40 0 13 9 10 51 -17 142 -96 322 -66 389 64 23 45
34 119 25 161 -10 45 -29 31 -36 -26 -9 -68 -32 -109 -81 -141 -87 -58 -203
-24 -273 79 l-34 52 6 107 c10 185 -28 338 -119 472 -23 34 -103 124 -178 200
-167 169 -201 221 -208 316 -6 84 17 159 60 200 38 35 38 56 3 160 -24 73 -32
86 -90 138 -35 32 -80 67 -100 78 l-37 19 -74 -25 -73 -25 -78 28 c-42 15 -85
28 -95 28 -10 0 -29 -17 -42 -38z m454 -187 c0 -8 -29 -45 -65 -82 -71 -73
-84 -100 -66 -139 17 -39 37 -39 113 0 38 20 82 36 96 36 22 0 19 -4 -21 -25
-26 -14 -68 -36 -94 -50 -25 -14 -54 -25 -62 -25 -25 0 -61 29 -71 56 -18 47
-1 82 84 165 44 43 82 79 83 79 2 0 3 -7 3 -15z m-422 -979 c13 -23 48 -74 78
-111 43 -55 54 -76 54 -105 0 -21 3 -59 7 -85 5 -37 3 -46 -6 -40 -9 5 -12 2
-8 -11 3 -11 8 -32 11 -49 l6 -30 -14 25 c-9 16 -15 57 -15 117 l-1 92 -62 81
c-34 44 -63 78 -66 76 -7 -7 19 -78 44 -122 21 -36 24 -53 24 -145 0 -103 -1
-104 -19 -80 -18 24 -18 23 -3 -35 9 -34 12 -69 8 -80 -7 -17 -9 -17 -23 10
-11 20 -14 49 -11 97 2 38 3 69 2 69 -1 0 -10 -24 -20 -52 l-17 -53 -17 37
c-24 55 -25 53 -22 -20 l3 -67 -26 39 -27 38 -18 -27 -18 -28 -8 49 c-4 27 -9
42 -11 34 -12 -43 -14 -44 -32 -14 -10 16 -26 36 -36 44 -14 12 -14 8 4 -20
25 -41 29 -75 6 -44 -14 18 -15 16 -10 -21 l6 -40 -21 38 c-26 47 -31 47 -18
1 5 -20 7 -38 5 -40 -3 -3 -19 13 -36 34 -40 51 -40 82 -2 253 30 134 49 182
38 97 -7 -54 6 -68 63 -68 50 0 66 15 122 110 29 50 55 90 58 90 3 0 15 -20
28 -44z m358 -212 l-26 -82 29 -64 c16 -34 36 -72 44 -83 14 -19 16 -17 27 25
24 90 87 141 172 139 68 -1 94 -17 29 -18 -73 -1 -132 -36 -160 -94 -26 -54
-26 -76 0 -137 14 -33 34 -57 60 -74 21 -15 39 -28 39 -30 0 -7 -71 12 -84 23
-7 6 -21 29 -31 51 -17 38 -20 40 -64 40 -52 0 -91 -21 -91 -51 0 -14 -7 -19
-30 -19 -18 0 -30 5 -30 13 0 44 64 304 90 365 17 39 34 93 38 119 l7 48 3
-44 c2 -28 -6 -76 -22 -127z m-842 -47 c17 -23 29 -56 37 -107 7 -52 20 -89
40 -119 44 -67 38 -85 -16 -57 -18 10 -46 12 -88 9 l-62 -6 27 29 c56 60 84
173 57 227 -6 12 -23 35 -38 51 -24 26 -24 28 -4 17 12 -6 33 -26 47 -44z
m363 -214 c-3 -10 -5 -2 -5 17 0 19 2 27 5 18 2 -10 2 -26 0 -35z"/>
<path d="M3896 2707 c3 -10 9 -15 12 -12 3 3 0 11 -7 18 -10 9 -11 8 -5 -6z"/>
<path d="M1242 1653 c-7 -2 -17 -14 -23 -26 -11 -20 -10 -20 17 3 16 14 31 26
33 28 7 4 -14 1 -27 -5z"/>
</g>
</svg>
