<?xml version="1.0" standalone="no"?>
<!DOCTYPE svg PUBLIC "-//W3C//DTD SVG 20010904//EN"
 "http://www.w3.org/TR/2001/REC-SVG-20010904/DTD/svg10.dtd">
<svg version="1.0" xmlns="http://www.w3.org/2000/svg"
 width="800.000000pt" height="200.000000pt" viewBox="0 0 800.000000 200.000000"
 preserveAspectRatio="xMidYMid meet">

<g transform="translate(0.000000,200.000000) scale(0.100000,-0.100000)"
fill="#ffffff" stroke="none">
<path d="M0 1000 l0 -1000 4000 0 4000 0 0 1000 0 1000 -4000 0 -4000 0 0
-1000z m5860 823 c0 -22 -2 -24 -15 -13 -8 7 -15 24 -15 37 0 22 2 24 15 13 8
-7 15 -24 15 -37z m60 -19 c0 -16 -23 -44 -35 -44 -18 0 -20 21 -3 38 12 12
38 17 38 6z m-132 -66 c14 -14 16 -58 3 -58 -12 0 -41 40 -41 57 0 16 22 17
38 1z m43 -64 c-12 -26 -19 -49 -17 -51 2 -2 38 3 80 11 99 21 191 20 301 -3
160 -33 297 -111 407 -230 114 -124 149 -203 116 -264 -10 -20 -11 -20 -24 -2
-19 26 -17 52 4 73 18 18 18 20 -15 70 -78 116 -227 226 -378 278 -73 26 -93
28 -225 28 -137 0 -150 -1 -233 -31 -108 -38 -183 -82 -259 -152 -92 -84 -173
-209 -203 -311 -7 -23 -6 -23 31 9 43 38 123 78 175 86 30 5 28 3 -21 -21
-144 -72 -244 -248 -224 -394 11 -84 45 -194 81 -262 20 -38 34 -70 32 -72 -2
-2 -25 -10 -51 -19 l-47 -15 -30 61 c-63 131 -76 196 -76 372 1 153 2 164 31
247 17 48 51 122 75 164 58 103 189 236 288 295 84 49 134 95 171 156 32 52
38 39 11 -23z m89 48 c0 -13 -24 -39 -42 -45 -28 -10 -33 14 -8 35 23 19 50
24 50 10z m-4930 -162 c95 -18 145 -75 170 -193 6 -32 10 -60 8 -62 -1 -1 -28
-10 -58 -18 -60 -18 -70 -13 -70 35 0 47 -30 108 -61 123 -41 22 -73 18 -108
-10 -54 -46 -56 -65 -56 -475 0 -411 2 -429 58 -476 25 -21 38 -25 70 -21 66
9 94 49 112 165 7 45 10 47 79 35 l39 -6 -7 -59 c-13 -131 -79 -217 -182 -238
-105 -22 -203 15 -249 95 -47 79 -55 151 -55 505 0 354 8 426 55 505 26 46 77
83 129 95 45 11 67 11 126 0z m2486 -5 c70 -21 118 -64 146 -133 22 -55 23
-67 26 -435 3 -415 -1 -463 -56 -542 -50 -73 -158 -108 -266 -85 -47 10 -67
20 -106 58 -82 80 -93 157 -88 590 4 301 6 332 26 392 45 136 172 199 318 155z
m667 1 c92 -28 137 -85 155 -200 l9 -54 -59 -15 c-32 -8 -60 -12 -62 -8 -2 3
-6 26 -10 51 -8 56 -38 107 -70 121 -37 17 -92 3 -115 -30 -38 -53 -42 -101
-39 -486 3 -340 5 -373 22 -408 12 -24 32 -45 53 -55 30 -14 38 -15 75 -2 71
26 97 110 98 318 l0 102 -70 0 -70 0 0 50 0 50 130 0 130 0 0 -305 0 -305 -39
0 c-42 0 -43 1 -56 68 l-7 33 -30 -46 c-34 -51 -63 -69 -124 -80 -83 -13 -165
29 -204 105 -36 70 -42 149 -38 535 4 402 6 416 64 492 54 70 159 99 257 69z
m-2503 -22 c0 -10 200 -1105 207 -1132 5 -22 4 -23 -63 -20 l-68 3 -25 148
-25 147 -117 0 -117 0 -6 -28 c-3 -15 -13 -72 -21 -127 -24 -159 -16 -145 -90
-145 -36 0 -65 3 -65 6 0 7 186 1027 201 1102 l10 52 90 0 c49 0 89 -3 89 -6z
m710 -44 l0 -50 -80 0 -80 0 0 -530 0 -530 -65 0 -65 0 0 530 0 530 -80 0 -80
0 0 50 0 50 225 0 225 0 0 -50z m481 23 c60 -31 90 -69 116 -147 13 -42 17
-107 21 -355 4 -333 -4 -434 -43 -510 -28 -56 -47 -74 -105 -100 -39 -18 -66
-21 -192 -21 l-148 0 0 580 0 580 148 0 c142 0 151 -1 203 -27z m3779 -189 c0
-43 -15 -51 -36 -19 -14 21 -15 30 -5 51 9 22 14 24 26 14 8 -7 15 -27 15 -46z
m-416 31 c30 -13 44 -13 76 -4 36 11 43 10 81 -15 62 -41 99 -137 64 -166 -8
-7 -20 -30 -25 -52 -17 -62 2 -100 100 -204 116 -121 142 -176 145 -300 2 -52
8 -99 16 -111 21 -35 66 -56 104 -49 38 8 52 22 71 73 l13 38 1 -42 c1 -92
-102 -143 -186 -94 -29 18 -39 19 -45 9 -5 -7 -9 -15 -9 -18 0 -3 40 -21 89
-40 50 -19 88 -36 86 -38 -2 -2 -46 5 -97 17 -389 87 -801 91 -1212 11 -83
-16 -151 -28 -153 -26 -5 4 170 70 231 86 l48 13 -35 19 c-37 19 -42 27 -52
93 -12 72 -14 75 -47 72 -36 -2 -46 14 -22 38 36 36 104 -9 104 -70 0 -83 39
-121 97 -93 28 13 28 14 24 99 -5 122 15 160 127 239 l43 31 -2 87 c-1 59 2
86 10 84 6 -1 11 5 11 13 0 8 5 15 10 15 6 0 10 -3 10 -7 0 -5 23 -8 52 -9 65
-1 85 -22 63 -65 -21 -39 -19 -59 10 -113 14 -26 25 -56 25 -66 0 -34 18 -31
51 9 28 32 33 46 30 80 -3 50 12 102 49 161 35 56 45 102 30 130 -6 12 -14 19
-17 16 -4 -3 -19 8 -35 25 -24 25 -28 36 -23 62 8 36 31 77 44 77 5 0 25 -7
45 -15z m570 -56 c29 -23 26 -39 -8 -39 -26 0 -61 34 -51 49 10 17 30 13 59
-10z m-1190 -76 c-11 -33 -44 -44 -44 -16 0 10 7 29 16 42 22 31 42 13 28 -26z
m86 17 c0 -10 -9 -24 -20 -30 -17 -9 -20 -8 -20 8 0 18 18 42 32 42 4 0 8 -9
8 -20z m-170 -38 c0 -26 -15 -52 -31 -52 -16 0 -18 35 -4 56 21 32 35 30 35
-4z m234 2 c26 -10 18 -24 -13 -24 -32 0 -50 15 -29 23 19 8 24 8 42 1z m1114
-92 c5 -17 -24 -15 -42 4 -23 22 -9 39 17 21 11 -7 23 -19 25 -25z m-1247 18
c24 -13 25 -40 1 -40 -10 0 -28 8 -41 17 -23 16 -23 17 -5 24 10 4 20 8 22 8
2 1 12 -4 23 -9z m-65 -75 c16 -13 17 -16 4 -25 -19 -12 -60 -13 -80 0 -16 10
-15 12 15 28 27 15 38 15 61 -3z m1290 -70 c-4 -14 -12 -25 -19 -22 -14 4 -21
41 -12 65 5 14 7 14 22 0 11 -11 13 -25 9 -43z"/>
<path d="M3334 1441 c-21 -12 -38 -36 -50 -68 -17 -44 -19 -81 -19 -418 0
-358 1 -371 22 -417 36 -79 121 -101 180 -46 47 44 53 93 53 468 0 376 -5 423
-54 469 -34 32 -93 37 -132 12z"/>
<path d="M1501 1092 c-24 -141 -45 -267 -48 -279 -5 -23 -4 -23 94 -23 l100 0
-46 274 c-25 151 -48 277 -51 280 -3 3 -25 -111 -49 -252z"/>
<path d="M2618 1434 c-5 -4 -8 -220 -8 -481 l0 -473 56 0 c103 0 143 36 163
144 15 79 14 590 0 674 -9 50 -19 73 -43 100 -28 30 -38 34 -96 39 -36 3 -68
2 -72 -3z"/>
<path d="M6314 1232 c-43 -38 -57 -67 -44 -92 14 -25 47 -25 85 0 34 22 14 27
-25 5 -18 -9 -29 -10 -37 -3 -19 16 -16 32 13 59 22 21 50 60 42 59 -2 -1 -17
-13 -34 -28z"/>
<path d="M6096 745 c-22 -37 -32 -45 -56 -45 -22 0 -30 5 -30 18 -1 35 -18
-12 -27 -76 -8 -48 -7 -66 4 -80 12 -16 14 -16 32 6 18 20 21 21 35 6 9 -8 20
-13 25 -9 6 3 14 -3 20 -12 10 -17 10 -16 11 3 0 32 27 24 35 -10 l8 -31 8 40
c13 63 10 113 -7 146 -8 17 -13 33 -11 36 10 10 56 -64 60 -97 4 -34 4 -34 5
6 1 27 -3 46 -13 54 -8 7 -25 30 -37 51 -12 22 -25 39 -29 39 -4 0 -19 -20
-33 -45z"/>
<path d="M6312 692 c-12 -32 -31 -106 -47 -179 -6 -27 16 -31 35 -8 14 17 60
21 60 5 0 -11 42 -52 48 -46 2 3 -5 15 -17 27 -21 23 -27 62 -14 94 3 10 24
26 47 36 38 17 39 19 13 19 -30 0 -77 -39 -77 -65 0 -25 -18 -17 -36 16 -13
26 -14 39 -4 81 15 59 10 71 -8 20z"/>
<path d="M5902 626 c9 -20 7 -33 -10 -67 -12 -24 -20 -44 -19 -45 1 0 22 -4
45 -8 l44 -7 -21 34 c-12 19 -21 46 -21 60 0 31 -9 57 -21 57 -5 0 -4 -11 3
-24z"/>
</g>
</svg>
