<?xml version="1.0" standalone="no"?>
<!DOCTYPE svg PUBLIC "-//W3C//DTD SVG 20010904//EN"
 "http://www.w3.org/TR/2001/REC-SVG-20010904/DTD/svg10.dtd">
<svg version="1.0" xmlns="http://www.w3.org/2000/svg"
 width="1250.000000pt" height="1250.000000pt" viewBox="0 0 1250.000000 1250.000000"
 preserveAspectRatio="xMidYMid meet">
<metadata>
Created by potrace 1.14, written by Peter Selinger 2001-2017
</metadata>
<g transform="translate(0.000000,1250.000000) scale(0.100000,-0.100000)"
fill="#000000" stroke="none">
<path d="M5249 9504 c-8 -11 -24 -39 -34 -64 -10 -25 -25 -52 -32 -61 -7 -8
-13 -19 -13 -23 0 -12 -117 -183 -186 -271 -187 -240 -350 -377 -669 -560
-299 -172 -536 -356 -806 -625 -241 -241 -349 -366 -516 -596 -320 -442 -592
-1085 -718 -1699 -28 -134 -30 -192 -30 -705 0 -484 4 -583 25 -705 6 -33 14
-73 16 -90 4 -23 92 -368 107 -420 19 -65 119 -349 127 -360 3 -5 15 -32 25
-60 31 -84 201 -418 230 -454 36 -42 58 -50 114 -38 63 12 368 126 392 146 20
16 20 16 -3 61 -13 25 -33 59 -45 77 -13 17 -23 33 -23 36 0 2 -22 43 -50 90
-103 179 -215 437 -291 670 -22 67 -42 131 -44 142 -3 11 -18 74 -35 140 -17
66 -39 174 -50 240 -10 66 -22 136 -25 155 -3 19 -8 116 -9 215 -4 185 7 312
39 454 10 40 18 78 19 85 4 20 57 180 73 216 141 329 302 558 557 787 124 112
309 235 481 319 66 33 122 59 125 59 9 1 90 45 90 50 0 2 -10 2 -22 -1 -13 -2
-39 -7 -58 -10 -88 -15 -273 -74 -410 -131 -208 -86 -361 -184 -575 -368 -32
-27 -71 -62 -88 -76 -41 -36 -87 -62 -87 -51 0 47 132 374 238 592 238 487
630 981 1027 1295 28 22 52 42 55 46 8 10 242 171 296 204 453 273 1095 485
1579 522 162 12 697 5 835 -11 14 -2 57 -6 95 -10 60 -6 111 -14 210 -31 123
-21 453 -126 654 -207 173 -70 437 -199 536 -263 162 -104 214 -139 305 -209
240 -185 437 -377 673 -656 38 -45 156 -209 252 -350 124 -182 140 -199 84
-87 -53 105 -196 337 -287 464 -171 239 -411 508 -597 668 -38 33 -81 70 -95
83 -50 46 -217 171 -320 239 -367 243 -723 406 -1154 527 -143 41 -385 91
-491 102 -38 4 -83 8 -100 10 -47 5 -399 17 -510 17 -102 1 -357 -11 -391 -17
-10 -2 -46 -7 -79 -11 -32 -3 -62 -8 -65 -10 -3 -1 -25 -6 -50 -9 -25 -3 -130
-26 -235 -51 -239 -58 -294 -69 -301 -63 -2 3 31 79 75 169 85 174 119 256
157 384 27 89 28 118 3 89z"/>
<path d="M6754 7619 c-51 -18 -144 -167 -174 -279 -21 -78 -22 -83 -26 -168
-4 -102 6 -129 74 -205 28 -31 58 -67 68 -82 12 -18 24 -25 43 -23 23 3 27 -2
35 -39 6 -24 15 -43 20 -43 17 0 32 13 39 33 13 34 35 16 74 -60 64 -125 73
-181 49 -318 -3 -16 -65 -147 -137 -290 -159 -313 -210 -428 -234 -515 -40
-145 -48 -280 -32 -492 l7 -98 -47 -53 c-83 -92 -156 -178 -206 -241 -27 -34
-55 -69 -63 -79 -21 -26 -66 -19 -81 13 -6 14 -14 45 -18 70 -17 123 -40 182
-144 365 -133 234 -151 390 -67 554 70 136 76 187 30 272 -37 69 -62 82 -184
94 -30 4 -63 8 -72 11 -22 6 -267 7 -295 0 -29 -6 -52 21 -85 103 -23 56 -27
62 -28 36 -4 -83 -31 -215 -44 -215 -6 0 -24 11 -40 25 -36 31 -49 31 -65 2
-15 -27 -17 -87 -8 -182 21 -226 28 -560 13 -658 -10 -64 -58 -110 -244 -233
-225 -149 -331 -241 -431 -377 -58 -80 -125 -217 -150 -307 -20 -74 -23 -89
-37 -180 -7 -50 -8 -270 0 -316 2 -16 8 -58 11 -94 4 -36 9 -72 10 -81 5 -23
13 -104 20 -180 6 -78 3 -82 -96 -128 -128 -59 -276 -75 -347 -37 -44 23 -110
83 -127 115 -15 29 -26 93 -40 232 -3 31 -8 67 -10 80 -3 13 -7 40 -10 61 -19
122 -72 252 -130 311 -19 20 -57 49 -83 64 -43 25 -56 28 -142 27 -95 0 -153
-16 -201 -56 -60 -49 -64 -161 -7 -197 25 -15 108 -16 158 -1 45 13 96 13 122
-1 37 -20 64 -108 83 -264 4 -27 8 -61 10 -75 2 -14 7 -45 10 -70 11 -85 47
-215 75 -270 60 -118 135 -158 380 -206 37 -8 35 -10 -22 -27 -323 -95 -434
-130 -618 -193 -118 -41 -224 -78 -235 -83 -11 -5 -42 -17 -70 -26 -203 -71
-549 -217 -590 -249 -19 -15 -18 -15 20 -11 22 3 51 8 65 12 14 3 30 7 35 9 6
1 21 5 35 7 14 3 93 22 175 42 83 20 194 45 249 56 54 10 101 21 105 23 3 2
22 7 41 10 19 3 105 19 190 35 85 17 171 33 190 36 47 8 139 24 170 30 14 3
41 7 60 10 39 5 105 15 135 21 53 11 445 66 560 80 33 3 69 8 80 10 11 2 70 9
130 15 61 5 120 12 132 14 19 3 79 8 241 21 244 18 1597 25 2077 11 315 -10
388 -14 553 -32 170 -19 219 -25 297 -35 39 -5 88 -12 110 -15 98 -12 280 -38
375 -54 36 -6 83 -13 105 -16 38 -5 98 -15 120 -21 6 -1 30 -5 55 -9 25 -3 95
-15 155 -25 61 -11 124 -22 140 -25 17 -3 44 -7 60 -10 44 -8 477 -96 495
-100 8 -3 44 -11 80 -19 61 -13 145 -35 330 -86 41 -11 82 -19 90 -17 35 8
-408 200 -765 331 -272 100 -265 97 -271 107 -2 4 9 32 25 61 17 30 32 65 34
78 2 14 10 26 18 28 8 1 53 -21 99 -49 172 -105 331 -153 485 -145 100 5 161
20 250 61 209 96 323 303 318 576 -1 63 -23 129 -42 129 -20 0 -45 -59 -54
-130 -17 -128 -60 -224 -132 -294 -88 -87 -195 -129 -313 -125 -184 6 -331
102 -464 303 l-60 90 8 130 c12 233 7 530 -11 596 -2 8 -6 32 -10 53 -20 140
-92 353 -168 497 -44 84 -133 222 -169 260 -13 14 -36 41 -52 60 -32 40 -184
205 -266 290 -30 32 -102 106 -160 166 -187 194 -270 295 -336 406 -82 141
-105 312 -68 523 11 67 78 196 128 250 70 74 80 97 73 174 -6 75 -86 329 -126
400 -35 62 -118 147 -274 278 -41 35 -137 98 -184 122 l-43 21 -162 -56 c-90
-31 -175 -59 -189 -61 -16 -3 -80 15 -165 45 -188 67 -275 91 -300 81z m1046
-548 c0 -15 -49 -90 -85 -127 -11 -12 -122 -135 -175 -194 -41 -46 -78 -108
-84 -144 -6 -35 19 -114 48 -145 33 -36 96 -25 241 44 134 63 221 95 262 95
24 0 25 -2 13 -14 -34 -34 -432 -236 -463 -236 -38 1 -101 36 -139 78 -43 47
-63 109 -54 169 6 49 16 67 72 143 49 65 336 350 353 350 6 0 11 -8 11 -19z
m-1082 -2408 c60 -105 106 -174 200 -298 101 -132 111 -147 132 -189 12 -26
22 -71 25 -112 2 -38 7 -105 11 -149 13 -134 12 -150 -11 -150 -11 -1 -19 -5
-18 -10 8 -50 15 -90 27 -142 7 -35 12 -63 10 -63 -7 0 -41 75 -48 104 -11 45
-15 118 -18 301 -2 115 -7 175 -15 185 -7 8 -58 74 -113 145 -113 146 -180
225 -192 225 -23 0 25 -136 100 -287 38 -75 53 -118 58 -165 10 -83 9 -426 0
-436 -4 -4 -21 8 -37 26 -33 36 -40 39 -34 15 4 -16 29 -124 41 -178 12 -53 7
-126 -9 -142 -15 -16 -18 -13 -44 43 -28 58 -28 62 -26 234 1 96 -2 168 -7
160 -4 -8 -25 -66 -45 -128 -21 -61 -39 -111 -40 -110 -2 2 -17 37 -35 78 -60
137 -62 136 -58 -42 l4 -157 -48 67 c-27 37 -56 78 -66 92 l-19 25 -44 -70
-44 -69 -17 99 c-9 55 -17 101 -17 103 -3 10 -21 -1 -21 -13 0 -20 -22 -65
-31 -65 -4 0 -22 21 -40 48 -35 51 -99 122 -110 122 -4 0 10 -30 31 -67 56
-96 68 -166 19 -109 -12 14 -27 26 -32 26 -8 0 -5 -46 10 -130 7 -41 4 -39
-29 20 -74 133 -93 147 -68 52 19 -73 23 -112 11 -112 -12 0 -75 67 -108 115
-40 59 -51 104 -48 195 4 88 5 95 30 226 23 114 24 119 41 193 9 36 17 73 19
82 13 62 60 222 70 236 11 15 12 12 8 -17 -2 -19 -5 -69 -6 -111 -3 -113 23
-133 169 -132 64 1 102 15 146 57 28 27 119 161 164 242 54 99 120 194 133
194 4 0 21 -26 39 -57z m976 -288 c-3 -107 -28 -219 -88 -396 l-32 -95 52
-115 c28 -63 66 -141 84 -174 77 -142 83 -141 124 5 42 151 162 274 302 310
45 11 172 14 219 5 92 -18 80 -31 -35 -38 -102 -7 -146 -19 -223 -60 -72 -38
-137 -109 -177 -193 -54 -113 -50 -199 16 -339 40 -82 72 -118 168 -188 60
-44 67 -53 48 -55 -31 -5 -155 35 -185 59 -14 10 -46 59 -71 109 -26 49 -57
95 -69 102 -37 20 -177 13 -233 -11 -65 -29 -83 -48 -90 -93 -4 -22 -14 -43
-25 -48 -26 -14 -92 -12 -114 4 -18 13 -18 38 0 126 11 55 26 126 31 150 3 14
7 36 10 50 3 14 27 112 55 219 48 186 63 235 163 526 39 115 48 151 56 240 5
42 16 -41 14 -100z m-2269 -303 c48 -30 111 -101 139 -156 26 -51 53 -152 76
-281 17 -94 41 -156 93 -240 93 -152 86 -197 -21 -145 -75 36 -141 42 -317 26
l-80 -8 21 24 c11 12 31 34 43 48 107 118 180 323 166 469 -7 78 -35 133 -111
219 -58 64 -60 75 -9 44z m1021 -601 c-6 -54 -16 -47 -16 10 1 39 3 50 10 38
6 -10 8 -31 6 -48z"/>
<path d="M9742 6765 c12 -27 28 -34 28 -12 0 14 -20 37 -32 37 -4 0 -2 -11 4
-25z"/>
<path d="M3127 4140 c-39 -12 -55 -27 -78 -73 -22 -42 -15 -41 35 3 99 85 100
87 43 70z"/>
</g>
</svg>
